<svg width="87" height="33" viewBox="0 0 87 33" fill="none" xmlns="http://www.w3.org/2000/svg">
<rect width="2.78197" height="21.5435" transform="matrix(0.922066 0.387033 -0.385557 0.922684 16.3701 6)" fill="#6A5141"/>
<rect width="2.78197" height="21.5435" transform="matrix(-0.917685 0.397308 -0.398776 -0.917049 19.0728 25.8008)" fill="#6A5141"/>
<rect width="2.78197" height="21.5435" transform="matrix(-0.379618 0.925144 -0.92575 -0.378137 24 19.2637)" fill="#6A5141"/>
<rect width="2.78197" height="21.5435" transform="matrix(0.377782 0.925895 -0.925289 0.379262 22.9414 11.1055)" fill="#6A5141"/>
<path d="M35.425 26V25.825C36.65 25.5 36.725 25.125 36.725 19.7V13.55C36.725 8.125 36.65 7.75 35.425 7.425V7.25H42.35C46.45 7.25 49.35 8.475 49.35 12C49.35 15.65 46.275 17.35 42.375 17.35H39.975V19.7C39.975 25.125 40.05 25.5 41.35 25.825V26H35.425ZM42.325 7.475H39.975V17.125H42.3C44.675 17.125 46.325 16 46.325 12.275C46.325 8.55 44.6 7.475 42.325 7.475ZM50.4014 26V25.825C51.3764 25.55 51.4014 25.2 51.4014 22.175V11.9C51.4014 9.025 51.4014 8.95 50.3764 8.875V8.675L54.2264 6.6V16.775L54.7764 16.25C56.0764 15 57.1264 14.15 58.6514 14.15C60.1014 14.15 61.5514 14.85 61.5514 17.3V22.175C61.5514 25.2 61.5514 25.55 62.5514 25.825V26H57.6014V25.825C58.6514 25.55 58.7014 25.2 58.7014 22.175V16.5C58.7014 15.225 58.1264 14.825 57.5014 14.825C56.8014 14.825 55.9514 15.4 54.7764 16.55L54.2264 17.075V22.175C54.2264 25.2 54.2514 25.55 55.3264 25.825V26H50.4014ZM66.1438 12.7C65.2688 12.7 64.5688 11.975 64.5688 11.1C64.5688 10.25 65.2688 9.55 66.1438 9.55C67.0438 9.55 67.7438 10.225 67.7438 11.1C67.7438 11.975 67.0438 12.7 66.1438 12.7ZM63.6938 26V25.825C64.7188 25.55 64.7438 25.2 64.7438 22.175V19.425C64.7438 16.5 64.7438 16.425 63.7188 16.325V16.125L67.5688 14V22.175C67.5688 25.2 67.5938 25.55 68.6688 25.825V26H63.6938ZM73.0078 26.2C71.2328 26.2 69.9828 25.25 69.9828 23.6C69.9828 21.325 72.1578 21.175 74.4578 20.2L74.8828 20.025C75.9328 19.575 76.4328 19.325 76.4328 18.075V16.15C76.4328 14.775 75.4578 14.375 74.5578 14.375C73.5578 14.375 73.2828 14.775 72.9078 15.55C72.6078 16.2 72.3328 16.75 71.5828 16.75C70.9328 16.75 70.5328 16.325 70.5328 15.825C70.5328 14.775 72.3328 14.15 74.5078 14.15C76.8328 14.15 79.2578 14.8 79.2578 17.3V22.775C79.2578 25.275 79.4078 25.675 80.0828 25.675C80.3578 25.675 80.5578 25.55 80.7328 25.45L80.7828 25.575C80.5578 25.75 80.0578 26.15 78.7828 26.15C77.4578 26.15 76.6828 25.6 76.4828 24.575L76.3328 24.725C75.4828 25.55 74.5828 26.2 73.0078 26.2ZM72.8578 23.1C72.8578 24.7 73.3828 25.575 74.3828 25.575C74.9828 25.575 75.6328 25.125 76.3328 24.475L76.4578 24.35C76.4328 24.25 76.4328 24.1 76.4328 23.975V19.15C76.2328 19.625 75.7578 19.875 74.9328 20.225L74.5078 20.425C73.3328 20.9 72.8578 21.725 72.8578 23.1Z" fill="url(#paint0_linear_2201_60)"/>
<defs>
<linearGradient id="paint0_linear_2201_60" x1="37.5" y1="21" x2="78.5" y2="21" gradientUnits="userSpaceOnUse">
<stop stop-color="#664D3E"/>
<stop offset="0.52" stop-color="#937360"/>
<stop offset="1" stop-color="#664D3E"/>
</linearGradient>
</defs>
</svg>
