<svg width="103" height="40" viewBox="0 0 103 40" fill="none" xmlns="http://www.w3.org/2000/svg">
<rect width="3.18629" height="24.6745" transform="matrix(0.922066 0.387033 -0.385557 0.922684 23.3132 8)" fill="white"/>
<rect width="3.18629" height="24.6745" transform="matrix(-0.917685 0.397308 -0.398776 -0.917049 26.4087 30.6816)" fill="white"/>
<rect width="3.18629" height="24.6745" transform="matrix(-0.379618 0.925144 -0.92575 -0.378137 32.052 23.1895)" fill="white"/>
<rect width="3.18629" height="24.6745" transform="matrix(0.377782 0.925895 -0.925289 0.379262 30.8394 13.8457)" fill="white"/>
<path d="M44.51 32V31.79C45.98 31.4 46.07 30.95 46.07 24.44V17.06C46.07 10.55 45.98 10.1 44.51 9.71V9.5H52.82C57.74 9.5 61.22 10.97 61.22 15.2C61.22 19.58 57.53 21.62 52.85 21.62H49.97V24.44C49.97 30.95 50.06 31.4 51.62 31.79V32H44.51ZM52.79 9.77H49.97V21.35H52.76C55.61 21.35 57.59 20 57.59 15.53C57.59 11.06 55.52 9.77 52.79 9.77ZM61.2816 32V31.79C62.4516 31.46 62.4816 31.04 62.4816 27.41V15.08C62.4816 11.63 62.4816 11.54 61.2516 11.45V11.21L65.8716 8.72V20.93L66.5316 20.3C68.0916 18.8 69.3516 17.78 71.1816 17.78C72.9216 17.78 74.6616 18.62 74.6616 21.56V27.41C74.6616 31.04 74.6616 31.46 75.8616 31.79V32H69.9216V31.79C71.1816 31.46 71.2416 31.04 71.2416 27.41V20.6C71.2416 19.07 70.5516 18.59 69.8016 18.59C68.9616 18.59 67.9416 19.28 66.5316 20.66L65.8716 21.29V27.41C65.8716 31.04 65.9016 31.46 67.1916 31.79V32H61.2816ZM78.9725 16.04C77.9225 16.04 77.0825 15.17 77.0825 14.12C77.0825 13.1 77.9225 12.26 78.9725 12.26C80.0525 12.26 80.8925 13.07 80.8925 14.12C80.8925 15.17 80.0525 16.04 78.9725 16.04ZM76.0325 32V31.79C77.2625 31.46 77.2925 31.04 77.2925 27.41V24.11C77.2925 20.6 77.2925 20.51 76.0625 20.39V20.15L80.6825 17.6V27.41C80.6825 31.04 80.7125 31.46 82.0025 31.79V32H76.0325ZM86.0094 32.24C83.8794 32.24 82.3794 31.1 82.3794 29.12C82.3794 26.39 84.9894 26.21 87.7494 25.04L88.2594 24.83C89.5194 24.29 90.1194 23.99 90.1194 22.49V20.18C90.1194 18.53 88.9494 18.05 87.8694 18.05C86.6694 18.05 86.3394 18.53 85.8894 19.46C85.5294 20.24 85.1994 20.9 84.2994 20.9C83.5194 20.9 83.0394 20.39 83.0394 19.79C83.0394 18.53 85.1994 17.78 87.8094 17.78C90.5994 17.78 93.5094 18.56 93.5094 21.56V28.13C93.5094 31.13 93.6894 31.61 94.4994 31.61C94.8294 31.61 95.0694 31.46 95.2794 31.34L95.3394 31.49C95.0694 31.7 94.4694 32.18 92.9394 32.18C91.3494 32.18 90.4194 31.52 90.1794 30.29L89.9994 30.47C88.9794 31.46 87.8994 32.24 86.0094 32.24ZM85.8294 28.52C85.8294 30.44 86.4594 31.49 87.6594 31.49C88.3794 31.49 89.1594 30.95 89.9994 30.17L90.1494 30.02C90.1194 29.9 90.1194 29.72 90.1194 29.57V23.78C89.8794 24.35 89.3094 24.65 88.3194 25.07L87.8094 25.31C86.3994 25.88 85.8294 26.87 85.8294 28.52Z" fill="white"/>
</svg>
