<svg width="20" height="20" viewBox="0 0 20 20" fill="none" xmlns="http://www.w3.org/2000/svg">
<path d="M10.1535 17.9987C8.639 17.9999 7.15463 17.5769 5.86817 16.7775C4.577 15.9821 3.53459 14.8414 2.85853 13.4838C2.18256 12.1255 1.89673 10.6063 2.03322 9.09521C2.17387 7.58607 2.73092 6.14552 3.64218 4.93443C4.683 3.55093 6.13628 2.53249 7.79215 2.02736C7.86272 2.00925 7.93539 2.0005 8.00824 2.00002C8.10704 1.99935 8.20313 2.01871 8.29463 2.056C8.38613 2.09329 8.46916 2.14789 8.53935 2.21743C8.63511 2.31357 8.70503 2.43451 8.73722 2.56633C8.76941 2.69815 8.76487 2.83524 8.7242 2.9647C8.37568 4.11961 8.34651 5.34763 8.64089 6.51751C8.93527 7.68739 9.54203 8.7558 10.3956 9.60815C11.0114 10.2297 11.7433 10.7218 12.5513 11.0571C13.3594 11.3924 14.2253 11.5639 15.1002 11.561C15.7546 11.5605 16.4056 11.4642 17.032 11.2745C17.1019 11.2532 17.1749 11.2419 17.248 11.242C17.4481 11.2421 17.6404 11.3218 17.7818 11.4633C17.878 11.5591 17.9474 11.6803 17.9796 11.8122C18.0118 11.9442 18.0053 12.0825 17.964 12.2119C17.4604 13.8665 16.4462 15.3196 15.0663 16.3622C13.6621 17.4218 11.9516 17.9961 10.1926 18L10.1535 17.9987ZM4.84239 5.83663C3.87509 7.11903 3.40427 8.70877 3.51721 10.3112C3.63124 11.9113 4.31812 13.4163 5.45161 14.5513C6.06761 15.1733 6.80133 15.6663 7.60991 16.0016C8.41849 16.3369 9.286 16.5076 10.1613 16.5042C11.6051 16.5064 13.0098 16.0355 14.1603 15.1632C14.9233 14.583 15.554 13.8472 16.0114 13.0047C15.7056 13.0397 15.3975 13.0571 15.0897 13.0568C12.929 13.0519 10.8581 12.1913 9.33082 10.6627C7.80354 9.13399 6.94398 7.06156 6.94081 4.90058C6.9412 4.59502 6.95864 4.29031 6.99288 3.98667C6.15084 4.44302 5.41799 5.075 4.84239 5.84053V5.83663Z" fill="black"/>
</svg>
