<svg width="20" height="20" viewBox="0 0 20 20" fill="none" xmlns="http://www.w3.org/2000/svg">
<path d="M9.37109 17.376V15.7939C9.37109 15.6286 9.43593 15.4705 9.55273 15.3535C9.66954 15.2365 9.82882 15.1702 9.99414 15.1699C10.1603 15.1694 10.3196 15.2346 10.4375 15.3516C10.5554 15.4686 10.6223 15.6278 10.623 15.7939V17.376C10.6228 17.4583 10.606 17.5393 10.5742 17.6152C10.5425 17.6911 10.4959 17.7604 10.4375 17.8184C10.3791 17.8763 10.3105 17.922 10.2344 17.9531C10.1582 17.9843 10.0764 18.0004 9.99414 18C9.82882 17.9997 9.66954 17.9334 9.55273 17.8164C9.43593 17.6994 9.37109 17.5413 9.37109 17.376ZM14.8184 15.7119L13.7656 14.6592C13.6492 14.5411 13.584 14.3816 13.584 14.2158C13.584 14.05 13.6492 13.8915 13.7656 13.7734C13.8848 13.6557 14.0454 13.5884 14.2129 13.5869C14.2945 13.5876 14.3741 13.6048 14.4492 13.6367C14.5244 13.6686 14.5932 13.7152 14.6504 13.7734L15.7031 14.8271C15.7617 14.885 15.8081 14.9533 15.8398 15.0293C15.8716 15.1052 15.8887 15.1872 15.8887 15.2695C15.8887 15.3518 15.8716 15.4328 15.8398 15.5088C15.8081 15.5847 15.7617 15.6541 15.7031 15.7119C15.6459 15.7696 15.577 15.8156 15.502 15.8467C15.4269 15.8777 15.3468 15.8929 15.2656 15.8926C15.0983 15.8933 14.9382 15.8286 14.8184 15.7119ZM4.2832 15.7119C4.1659 15.5945 4.09961 15.4355 4.09961 15.2695C4.09961 15.1036 4.1659 14.9445 4.2832 14.8271L5.33594 13.7734C5.45454 13.6573 5.61334 13.5903 5.7793 13.5869C5.94571 13.5881 6.1053 13.6554 6.22266 13.7734C6.34002 13.891 6.40625 14.0497 6.40625 14.2158C6.40625 14.3819 6.34002 14.5416 6.22266 14.6592L5.16797 15.7119C5.11024 15.77 5.04058 15.8156 4.96484 15.8467C4.88911 15.8778 4.80842 15.8933 4.72656 15.8926C4.56088 15.8926 4.40144 15.828 4.2832 15.7119ZM5.68359 10.0019C5.68571 8.85855 6.14062 7.76251 6.94922 6.9541C7.75782 6.14568 8.85464 5.6913 9.99805 5.68945C11.1414 5.69104 12.2364 6.1456 13.0449 6.9541C13.8534 7.7626 14.309 8.85856 14.3105 10.0019C14.31 11.1455 13.8554 12.2421 13.0469 13.0508C12.2384 13.8595 11.1416 14.3146 9.99805 14.3154C8.8537 14.3149 7.75682 13.8596 6.94727 13.0508C6.13771 12.242 5.68128 11.1453 5.67969 10.001L5.68359 10.0019ZM6.93555 10.0019C6.93713 10.8137 7.25988 11.5921 7.83398 12.166C8.40809 12.7399 9.18627 13.0631 9.99805 13.0644C10.8096 13.0629 11.5884 12.739 12.1621 12.165C12.7358 11.5911 13.0573 10.8135 13.0586 10.0019C13.0586 9.19003 12.7361 8.41112 12.1621 7.83691C11.5881 7.2627 10.81 6.94069 9.99805 6.94043C9.18568 6.94016 8.40693 7.26197 7.83203 7.83593C7.25713 8.4099 6.9327 9.1886 6.93164 10.001L6.93555 10.0019ZM15.7949 10.625C15.6291 10.625 15.4694 10.56 15.3516 10.4434C15.2338 10.3267 15.1676 10.1677 15.166 10.0019C15.1673 9.83563 15.2339 9.67611 15.3516 9.55859C15.4693 9.44107 15.6286 9.37507 15.7949 9.37402H17.373C17.5394 9.37428 17.6988 9.44085 17.8164 9.55859C17.934 9.67633 18 9.83557 18 10.0019C17.9999 10.0841 17.9828 10.1654 17.9512 10.2412C17.9196 10.317 17.8727 10.3855 17.8145 10.4434C17.7562 10.5012 17.6873 10.547 17.6113 10.5781C17.5353 10.6092 17.4552 10.6254 17.373 10.625H15.7949ZM2.62305 10.625C2.45782 10.625 2.29848 10.5592 2.18164 10.4424C2.06481 10.3255 2 10.1672 2 10.0019C1.99999 9.83626 2.06495 9.6772 2.18164 9.55957C2.29833 9.44194 2.45736 9.37534 2.62305 9.37402H4.20703C4.37264 9.3756 4.52985 9.44199 4.64648 9.55957C4.76312 9.67714 4.82787 9.83634 4.82812 10.0019C4.8276 10.167 4.76321 10.3257 4.64648 10.4424C4.52976 10.5591 4.3721 10.6245 4.20703 10.625H2.62305ZM13.6348 6.02539C13.5879 5.9115 13.5756 5.78584 13.5996 5.66504C13.6236 5.54423 13.6826 5.43298 13.7695 5.3457L14.8223 4.29199C14.8808 4.23304 14.9506 4.18622 15.0273 4.1543C15.1041 4.12237 15.1864 4.10644 15.2695 4.10644C15.3514 4.10594 15.4325 4.12133 15.5078 4.15332C15.5831 4.18531 15.6506 4.23276 15.707 4.29199C15.7655 4.35 15.8121 4.41908 15.8438 4.49512C15.8754 4.57115 15.8926 4.65298 15.8926 4.73535C15.8926 4.81772 15.8754 4.89858 15.8438 4.97461C15.8121 5.05064 15.7655 5.11973 15.707 5.17773L14.6543 6.23144C14.597 6.28892 14.5281 6.33417 14.4531 6.36523C14.3781 6.39629 14.298 6.41222 14.2168 6.41211C14.0913 6.41433 13.9679 6.37787 13.8633 6.30859C13.7587 6.23931 13.6778 6.14079 13.6309 6.02441L13.6348 6.02539ZM5.33984 6.23144L4.28516 5.17773C4.16779 5.06018 4.10352 4.90147 4.10352 4.73535C4.10352 4.56923 4.16779 4.40955 4.28516 4.29199C4.34308 4.2333 4.41225 4.18622 4.48828 4.1543C4.56431 4.12237 4.64606 4.10669 4.72852 4.10644C4.81079 4.10594 4.89294 4.12134 4.96875 4.15332C5.04456 4.18529 5.11286 4.23272 5.16992 4.29199L6.22461 5.3457C6.34192 5.46309 6.4082 5.62213 6.4082 5.78808C6.4082 5.95404 6.34192 6.11406 6.22461 6.23144C6.10674 6.34807 5.94706 6.41282 5.78125 6.41211C5.6147 6.41111 5.45564 6.3453 5.33594 6.22949L5.33984 6.23144ZM9.375 4.20605V2.62793C9.37499 2.46224 9.43995 2.30318 9.55664 2.18555C9.67333 2.06792 9.83236 2.00132 9.99805 2C10.1645 2.00053 10.3236 2.06694 10.4414 2.18457C10.5592 2.3022 10.6262 2.46144 10.627 2.62793V4.20605C10.6264 4.37262 10.5593 4.53173 10.4414 4.64941C10.3235 4.7671 10.1646 4.83372 9.99805 4.83398C9.91528 4.83385 9.83221 4.8171 9.75586 4.78515C9.67951 4.75321 9.61093 4.70631 9.55273 4.64746C9.49454 4.58861 9.44906 4.51908 9.41797 4.44238C9.38688 4.36568 9.3703 4.28393 9.37109 4.20117L9.375 4.20605Z" fill="black"/>
</svg>
