<svg width="20" height="20" viewBox="0 0 20 20" fill="none" xmlns="http://www.w3.org/2000/svg">
<path d="M10 3.6C8.7342 3.6 7.49682 3.97535 6.44435 4.67859C5.39188 5.38184 4.57157 6.38138 4.08717 7.55083C3.60277 8.72027 3.47603 10.0071 3.72297 11.2486C3.96992 12.4901 4.57946 13.6304 5.47452 14.5255C6.36957 15.4205 7.50994 16.0301 8.75142 16.277C9.9929 16.524 11.2797 16.3972 12.4492 15.9128C13.6186 15.4284 14.6182 14.6081 15.3214 13.5556C16.0246 12.5032 16.4 11.2658 16.4 10C16.3982 8.30317 15.7233 6.67636 14.5235 5.47652C13.3236 4.27668 11.6968 3.60181 10 3.6ZM10 2C11.5822 2 13.129 2.46919 14.4446 3.34824C15.7602 4.22729 16.7855 5.47672 17.391 6.93853C17.9965 8.40034 18.155 10.0089 17.8463 11.5607C17.5376 13.1126 16.7757 14.538 15.6569 15.6569C14.538 16.7757 13.1126 17.5376 11.5607 17.8463C10.0089 18.155 8.40034 17.9965 6.93853 17.391C5.47672 16.7855 4.22729 15.7602 3.34824 14.4446C2.46919 13.129 2 11.5822 2 10C2 7.87827 2.84285 5.84344 4.34315 4.34315C5.84344 2.84285 7.87827 2 10 2Z" fill="black"/>
<path d="M11 17H9V3H11V17Z" fill="black"/>
</svg>
