<svg width="367" height="86" viewBox="0 0 367 86" fill="none" xmlns="http://www.w3.org/2000/svg">
<path d="M11.3912 48L0.691211 13H6.89121L13.0912 34.6C13.6579 36.6333 14.0745 38.3167 14.3412 39.65C14.6079 40.95 14.7412 41.6 14.7412 41.6C14.7412 41.6 14.8912 40.95 15.1912 39.65C15.4912 38.35 15.9079 36.6833 16.4412 34.65L22.5412 13H29.2912L35.3912 34.6C35.9579 36.6333 36.3745 38.3167 36.6412 39.65C36.9079 40.95 37.0412 41.6 37.0412 41.6C37.0412 41.6 37.1912 40.95 37.4912 39.65C37.7912 38.35 38.2079 36.6833 38.7412 34.65L44.8912 13H50.9412L40.2412 48H33.5912L27.5412 27.1C26.9412 25.0333 26.5079 23.35 26.2412 22.05C25.9745 20.7167 25.8412 20.05 25.8412 20.05C25.8412 20.05 25.6912 20.7167 25.3912 22.05C25.1245 23.35 24.6912 25.0167 24.0912 27.05L18.0412 48H11.3912ZM62.0287 48.4C59.4954 48.4 57.262 47.85 55.3287 46.75C53.4287 45.6167 51.9454 44.0833 50.8787 42.15C49.812 40.1833 49.2787 37.9333 49.2787 35.4C49.2787 32.8667 49.812 30.6333 50.8787 28.7C51.9454 26.7333 53.4287 25.2 55.3287 24.1C57.2287 22.9667 59.3954 22.4 61.8287 22.4C64.4954 22.4 66.7787 23.0333 68.6787 24.3C70.5787 25.5333 71.9787 27.2167 72.8787 29.35C73.7787 31.45 74.062 33.8 73.7287 36.4H54.7787C54.9787 38.6333 55.712 40.4333 56.9787 41.8C58.2787 43.1333 59.962 43.8 62.0287 43.8C63.5954 43.8 64.9787 43.4 66.1787 42.6C67.3787 41.7667 68.1287 40.7333 68.4287 39.5L73.5287 40.85C72.8954 43.0833 71.5287 44.9 69.4287 46.3C67.362 47.7 64.8954 48.4 62.0287 48.4ZM55.0787 32.25H68.0787C68.0454 30.5833 67.4454 29.2667 66.2787 28.3C65.1454 27.3 63.662 26.8 61.8287 26.8C60.1287 26.8 58.6787 27.2833 57.4787 28.25C56.312 29.1833 55.512 30.5167 55.0787 32.25ZM77.5119 48V12.6H82.9619V48H77.5119ZM99.3342 48.4C96.8675 48.4 94.6675 47.8333 92.7342 46.7C90.8342 45.5667 89.3342 44.0167 88.2342 42.05C87.1675 40.0833 86.6342 37.85 86.6342 35.35C86.6342 32.85 87.1675 30.6333 88.2342 28.7C89.3342 26.7333 90.8342 25.2 92.7342 24.1C94.6675 22.9667 96.8675 22.4 99.3342 22.4C102.401 22.4 105.018 23.1833 107.184 24.75C109.351 26.3167 110.651 28.4833 111.084 31.25L105.584 32.05C105.318 30.4833 104.634 29.2667 103.534 28.4C102.434 27.5333 101.034 27.1 99.3342 27.1C98.0008 27.1 96.7842 27.45 95.6842 28.15C94.6175 28.85 93.7675 29.8167 93.1342 31.05C92.5008 32.2833 92.1842 33.7167 92.1842 35.35C92.1842 36.9833 92.5008 38.4333 93.1342 39.7C93.7675 40.9333 94.6175 41.9167 95.6842 42.65C96.7842 43.35 98.0008 43.7 99.3342 43.7C101.101 43.7 102.534 43.25 103.634 42.35C104.768 41.45 105.451 40.2667 105.684 38.8L111.334 39.5C111.101 41.2333 110.434 42.7833 109.334 44.15C108.268 45.4833 106.868 46.5333 105.134 47.3C103.434 48.0333 101.501 48.4 99.3342 48.4ZM126.173 48.4C123.673 48.4 121.44 47.85 119.473 46.75C117.507 45.6167 115.957 44.0667 114.823 42.1C113.723 40.1333 113.173 37.8833 113.173 35.35C113.173 32.8167 113.723 30.5833 114.823 28.65C115.957 26.6833 117.507 25.15 119.473 24.05C121.44 22.95 123.673 22.4 126.173 22.4C128.707 22.4 130.94 22.95 132.873 24.05C134.84 25.15 136.373 26.6833 137.473 28.65C138.607 30.5833 139.173 32.8167 139.173 35.35C139.173 37.8833 138.607 40.1333 137.473 42.1C136.373 44.0667 134.84 45.6167 132.873 46.75C130.94 47.85 128.707 48.4 126.173 48.4ZM126.173 43.7C128.373 43.7 130.157 42.9333 131.523 41.4C132.923 39.8333 133.623 37.8167 133.623 35.35C133.623 32.9167 132.923 30.9333 131.523 29.4C130.157 27.8667 128.373 27.1 126.173 27.1C124.007 27.1 122.223 27.8667 120.823 29.4C119.423 30.9 118.723 32.8833 118.723 35.35C118.723 37.8167 119.423 39.8333 120.823 41.4C122.223 42.9333 124.007 43.7 126.173 43.7ZM142.822 48V22.8H148.272V26.65C149.006 25.4833 150.056 24.4833 151.422 23.65C152.822 22.8167 154.439 22.4 156.272 22.4C158.139 22.4 159.772 22.85 161.172 23.75C162.572 24.6167 163.506 25.75 163.972 27.15C164.939 25.75 166.172 24.6167 167.672 23.75C169.172 22.85 170.789 22.4 172.522 22.4C175.189 22.4 177.356 23.2333 179.022 24.9C180.722 26.5333 181.572 28.7333 181.572 31.5V48H176.122V32.7C176.122 31 175.689 29.6667 174.822 28.7C173.989 27.7 172.822 27.2 171.322 27.2C169.989 27.2 168.839 27.5833 167.872 28.35C166.939 29.0833 166.206 30.0833 165.672 31.35C165.172 32.6167 164.922 34.0333 164.922 35.6V48H159.472V32.7C159.472 31 159.056 29.6667 158.222 28.7C157.389 27.7 156.206 27.2 154.672 27.2C153.339 27.2 152.189 27.5833 151.222 28.35C150.289 29.0833 149.556 30.0833 149.022 31.35C148.522 32.6167 148.272 34.0333 148.272 35.6V48H142.822ZM197.654 48.4C195.12 48.4 192.887 47.85 190.954 46.75C189.054 45.6167 187.57 44.0833 186.504 42.15C185.437 40.1833 184.904 37.9333 184.904 35.4C184.904 32.8667 185.437 30.6333 186.504 28.7C187.57 26.7333 189.054 25.2 190.954 24.1C192.854 22.9667 195.02 22.4 197.454 22.4C200.12 22.4 202.404 23.0333 204.304 24.3C206.204 25.5333 207.604 27.2167 208.504 29.35C209.404 31.45 209.687 33.8 209.354 36.4H190.404C190.604 38.6333 191.337 40.4333 192.604 41.8C193.904 43.1333 195.587 43.8 197.654 43.8C199.22 43.8 200.604 43.4 201.804 42.6C203.004 41.7667 203.754 40.7333 204.054 39.5L209.154 40.85C208.52 43.0833 207.154 44.9 205.054 46.3C202.987 47.7 200.52 48.4 197.654 48.4ZM190.704 32.25H203.704C203.67 30.5833 203.07 29.2667 201.904 28.3C200.77 27.3 199.287 26.8 197.454 26.8C195.754 26.8 194.304 27.2833 193.104 28.25C191.937 29.1833 191.137 30.5167 190.704 32.25ZM232.048 48.4C229.681 48.4 227.698 47.6833 226.098 46.25C224.531 44.8167 223.748 42.7333 223.748 40V27.3H219.598V22.8H223.748V16.55H229.248V22.8H235.348V27.3H229.248V39.55C229.248 40.8833 229.565 41.9 230.198 42.6C230.831 43.2667 231.681 43.6 232.748 43.6C233.215 43.6 233.648 43.55 234.048 43.45C234.481 43.35 234.915 43.2333 235.348 43.1L235.748 47.75C235.215 47.9833 234.615 48.15 233.948 48.25C233.315 48.35 232.681 48.4 232.048 48.4ZM249.494 48.4C246.994 48.4 244.76 47.85 242.794 46.75C240.827 45.6167 239.277 44.0667 238.144 42.1C237.044 40.1333 236.494 37.8833 236.494 35.35C236.494 32.8167 237.044 30.5833 238.144 28.65C239.277 26.6833 240.827 25.15 242.794 24.05C244.76 22.95 246.994 22.4 249.494 22.4C252.027 22.4 254.26 22.95 256.194 24.05C258.16 25.15 259.694 26.6833 260.794 28.65C261.927 30.5833 262.494 32.8167 262.494 35.35C262.494 37.8833 261.927 40.1333 260.794 42.1C259.694 44.0667 258.16 45.6167 256.194 46.75C254.26 47.85 252.027 48.4 249.494 48.4ZM249.494 43.7C251.694 43.7 253.477 42.9333 254.844 41.4C256.244 39.8333 256.944 37.8167 256.944 35.35C256.944 32.9167 256.244 30.9333 254.844 29.4C253.477 27.8667 251.694 27.1 249.494 27.1C247.327 27.1 245.544 27.8667 244.144 29.4C242.744 30.9 242.044 32.8833 242.044 35.35C242.044 37.8167 242.744 39.8333 244.144 41.4C245.544 42.9333 247.327 43.7 249.494 43.7ZM276.286 48V13H290.286C292.586 13 294.586 13.4333 296.286 14.3C297.986 15.1667 299.303 16.3833 300.236 17.95C301.169 19.4833 301.636 21.3 301.636 23.4C301.636 25.5 301.169 27.3333 300.236 28.9C299.303 30.4667 297.986 31.6833 296.286 32.55C294.586 33.4167 292.586 33.85 290.286 33.85H282.136V48H276.286ZM282.136 28.85H289.686C291.553 28.85 293.036 28.35 294.136 27.35C295.236 26.35 295.786 25.0333 295.786 23.4C295.786 21.7667 295.236 20.4667 294.136 19.5C293.036 18.5333 291.553 18.05 289.686 18.05H282.136V28.85ZM304.67 48V12.6H310.12V26.55C310.853 25.45 311.953 24.4833 313.42 23.65C314.887 22.8167 316.62 22.4 318.62 22.4C320.42 22.4 322.02 22.7667 323.42 23.5C324.853 24.2333 325.97 25.3 326.77 26.7C327.603 28.0667 328.02 29.7167 328.02 31.65V48H322.52V32.85C322.52 31.05 322.037 29.6667 321.07 28.7C320.103 27.7 318.82 27.2 317.22 27.2C315.02 27.2 313.287 28.0833 312.02 29.85C310.753 31.6167 310.12 34.0333 310.12 37.1V48H304.67ZM332.821 48V22.8H338.271V48H332.821ZM335.571 19C334.537 19 333.671 18.6667 332.971 18C332.271 17.3333 331.921 16.4833 331.921 15.45C331.921 14.4167 332.271 13.5667 332.971 12.9C333.671 12.2333 334.537 11.9 335.571 11.9C336.637 11.9 337.521 12.2333 338.221 12.9C338.921 13.5667 339.271 14.4167 339.271 15.45C339.271 16.4833 338.921 17.3333 338.221 18C337.521 18.6667 336.637 19 335.571 19ZM351.043 48.4C348.343 48.4 346.193 47.7 344.593 46.3C343.026 44.9 342.243 43.1667 342.243 41.1C342.243 38.6 343.126 36.6833 344.893 35.35C346.693 33.9833 349.543 33.0833 353.443 32.65L358.593 32.15V31.5C358.593 30.0333 358.093 28.8833 357.093 28.05C356.126 27.2167 354.843 26.8 353.243 26.8C351.709 26.8 350.459 27.1833 349.493 27.95C348.559 28.7167 347.993 29.8833 347.793 31.45L342.543 30.65C342.976 28.1833 344.159 26.2 346.093 24.7C348.026 23.1667 350.409 22.4 353.243 22.4C355.343 22.4 357.209 22.7833 358.843 23.55C360.476 24.3167 361.743 25.4333 362.643 26.9C363.576 28.3333 364.043 30.0833 364.043 32.15V48H358.593V44.35C358.059 45.4833 357.093 46.45 355.693 47.25C354.293 48.0167 352.743 48.4 351.043 48.4ZM358.593 36.2L353.693 36.8C351.593 37.0333 350.059 37.45 349.093 38.05C348.159 38.65 347.693 39.5833 347.693 40.85C347.693 41.9167 348.076 42.75 348.843 43.35C349.609 43.9167 350.643 44.2 351.943 44.2C353.276 44.2 354.426 43.8667 355.393 43.2C356.393 42.5333 357.176 41.65 357.743 40.55C358.309 39.45 358.593 38.2333 358.593 36.9V36.2Z" fill="url(#paint0_linear_2234_125)"/>
<path d="M48.7072 81.16C45.0872 81.16 41.8272 78.78 41.8272 74C41.8272 69.22 45.1272 66.84 48.7072 66.84C51.9472 66.84 54.2872 68.62 54.7872 71.4L52.4672 71.9C52.0672 70.02 50.6472 68.88 48.7072 68.88C46.1472 68.88 44.2072 70.68 44.2072 74C44.2072 77.32 46.1272 79.1 48.7072 79.1C50.6672 79.1 51.9872 78.04 52.4272 76.28L54.7672 76.78C54.0872 79.48 51.8472 81.16 48.7072 81.16ZM62.6603 73.04C62.3003 72.88 61.8203 72.8 61.3603 72.8C59.8803 72.8 58.5803 74.12 58.5803 77.24V81H56.4003V70.92H58.5803V72.84C59.1203 71.64 60.4403 70.76 61.6603 70.76C62.0403 70.76 62.4803 70.82 62.7803 70.94L62.6603 73.04ZM62.9994 75.96C62.9994 73.24 64.7194 70.76 67.9194 70.76C71.1594 70.76 72.8794 73.12 72.8794 75.58C72.8794 75.88 72.8594 76.3 72.8394 76.48H65.1394C65.3394 78.22 66.4594 79.3 68.0594 79.3C69.3794 79.3 70.3194 78.68 70.5794 77.58L72.6394 78.1C72.0994 80.04 70.3794 81.16 68.0194 81.16C64.8194 81.16 62.9994 78.68 62.9994 75.96ZM65.2394 74.82H70.5594C70.4194 73.46 69.5194 72.48 67.9194 72.48C66.5394 72.48 65.5594 73.32 65.2394 74.82ZM80.468 74.48C80.468 73.24 79.608 72.48 78.288 72.48C77.068 72.48 76.208 73.2 76.068 74.4L74.108 74.04C74.428 72.06 76.148 70.76 78.288 70.76C80.848 70.76 82.608 72.2 82.608 74.72V81H80.468V79.46C79.888 80.48 78.648 81.16 77.308 81.16C75.308 81.16 73.928 79.9 73.928 78.18C73.928 76.2 75.468 75.14 78.568 74.82L80.468 74.62V74.48ZM76.068 78.12C76.068 78.92 76.728 79.48 77.748 79.48C79.448 79.48 80.448 78.3 80.468 76.66V76.24L78.548 76.46C76.908 76.64 76.068 77.24 76.068 78.12ZM90.3539 80.92C89.8739 81.08 89.3139 81.16 88.7539 81.16C86.8539 81.16 85.4339 80.12 85.4339 77.82V72.78H83.6739V70.92H85.4339V67.92H87.6139V70.92H90.2139V72.78H87.6139V77.7C87.6139 78.7 88.1739 79.22 88.9939 79.22C89.3739 79.22 89.8339 79.16 90.2139 78.98L90.3539 80.92ZM91.7925 81V70.92H93.9725V81H91.7925ZM91.6925 69.26V66.84H94.0925V69.26H91.6925ZM96.1581 81V70.92H98.3381V72.6C99.0181 71.52 100.178 70.76 101.658 70.76C103.798 70.76 105.298 72.18 105.298 74.36V81H103.118V74.86C103.118 73.6 102.338 72.72 101.058 72.72C99.3581 72.72 98.3381 74.16 98.3381 76.58V81H96.1581ZM111.637 80.72C108.637 80.72 106.917 78.66 106.917 75.74C106.917 72.82 108.637 70.76 111.597 70.76C112.877 70.76 114.037 71.3 114.617 72.08V70.92H116.777V80.44C116.777 83.04 114.797 84.8 111.897 84.8C109.537 84.8 107.677 83.54 107.357 81.68L109.397 81.36C109.517 82.36 110.577 83.02 111.897 83.02C113.517 83.02 114.637 82.06 114.637 80.66V79.44C114.137 80.2 112.957 80.72 111.637 80.72ZM109.097 75.74C109.097 77.6 110.217 78.82 111.937 78.82C113.637 78.82 114.757 77.6 114.757 75.74C114.757 73.88 113.637 72.66 111.937 72.66C110.217 72.66 109.097 73.88 109.097 75.74ZM128.577 81.16C127.237 81.16 126.017 80.56 125.537 79.72V81H123.357V66.84H125.537V72.18C126.137 71.34 127.317 70.76 128.617 70.76C131.657 70.76 133.397 72.92 133.397 75.96C133.397 79 131.657 81.16 128.577 81.16ZM125.377 75.96C125.377 77.94 126.537 79.26 128.297 79.26C130.057 79.26 131.217 77.94 131.217 75.96C131.217 73.96 130.057 72.66 128.297 72.66C126.537 72.66 125.377 73.96 125.377 75.96ZM134.467 75.96C134.467 73.24 136.187 70.76 139.387 70.76C142.627 70.76 144.347 73.12 144.347 75.58C144.347 75.88 144.327 76.3 144.307 76.48H136.607C136.807 78.22 137.927 79.3 139.527 79.3C140.847 79.3 141.787 78.68 142.047 77.58L144.107 78.1C143.567 80.04 141.847 81.16 139.487 81.16C136.287 81.16 134.467 78.68 134.467 75.96ZM136.707 74.82H142.027C141.887 73.46 140.987 72.48 139.387 72.48C138.007 72.48 137.027 73.32 136.707 74.82ZM151.936 74.48C151.936 73.24 151.076 72.48 149.756 72.48C148.536 72.48 147.676 73.2 147.536 74.4L145.576 74.04C145.896 72.06 147.616 70.76 149.756 70.76C152.316 70.76 154.076 72.2 154.076 74.72V81H151.936V79.46C151.356 80.48 150.116 81.16 148.776 81.16C146.776 81.16 145.396 79.9 145.396 78.18C145.396 76.2 146.936 75.14 150.036 74.82L151.936 74.62V74.48ZM147.536 78.12C147.536 78.92 148.196 79.48 149.216 79.48C150.916 79.48 151.916 78.3 151.936 76.66V76.24L150.016 76.46C148.376 76.64 147.536 77.24 147.536 78.12ZM165.242 70.92V81H163.062V79.32C162.382 80.4 161.222 81.16 159.742 81.16C157.602 81.16 156.102 79.74 156.102 77.56V70.92H158.282V77.06C158.282 78.32 159.062 79.2 160.342 79.2C162.042 79.2 163.062 77.76 163.062 75.34V70.92H165.242ZM173.121 80.92C172.641 81.08 172.081 81.16 171.521 81.16C169.621 81.16 168.201 80.12 168.201 77.82V72.78H166.441V70.92H168.201V67.92H170.381V70.92H172.981V72.78H170.381V77.7C170.381 78.7 170.941 79.22 171.761 79.22C172.141 79.22 172.601 79.16 172.981 78.98L173.121 80.92ZM174.56 81V70.92H176.74V81H174.56ZM174.46 69.26V66.84H176.86V69.26H174.46ZM179.865 81V72.78H178.205V70.92H179.865V70.06C179.865 67.78 181.265 66.52 183.185 66.52C183.685 66.52 184.185 66.6 184.625 66.74L184.505 68.58C184.145 68.44 183.805 68.38 183.465 68.38C182.605 68.38 182.045 69.02 182.045 70.02V70.92H184.505V72.78H182.045V81H179.865ZM194.931 70.92V81H192.751V79.32C192.071 80.4 190.911 81.16 189.431 81.16C187.291 81.16 185.791 79.74 185.791 77.56V70.92H187.971V77.06C187.971 78.32 188.751 79.2 190.031 79.2C191.731 79.2 192.751 77.76 192.751 75.34V70.92H194.931ZM197.09 81V66.84H199.27V81H197.09ZM209.34 81.16C206.88 81.16 205.48 79.64 205.02 78.2L206.82 77.44C207.16 78.52 207.94 79.42 209.34 79.42C210.38 79.42 211.08 78.82 211.08 78.1C211.08 75.92 205.46 77.34 205.46 73.52C205.46 71.94 206.84 70.76 209.02 70.76C210.92 70.76 212.52 71.76 212.96 73.24L211.16 74C210.9 73 209.96 72.44 209.04 72.44C208.08 72.44 207.48 72.82 207.48 73.48C207.48 75.42 213.14 73.94 213.14 78.08C213.14 79.82 211.62 81.16 209.34 81.16ZM219.16 81.16C216.14 81.16 214.1 79.06 214.1 75.96C214.1 72.86 216.14 70.76 219.16 70.76C221.64 70.76 223.42 72.08 223.76 74.16L221.64 74.58C221.44 73.44 220.5 72.66 219.22 72.66C217.48 72.66 216.36 73.96 216.36 75.96C216.36 77.96 217.5 79.26 219.22 79.26C220.5 79.26 221.4 78.56 221.64 77.38L223.78 77.8C223.36 79.9 221.62 81.16 219.16 81.16ZM231.613 73.04C231.253 72.88 230.773 72.8 230.313 72.8C228.833 72.8 227.533 74.12 227.533 77.24V81H225.353V70.92H227.533V72.84C228.073 71.64 229.393 70.76 230.613 70.76C230.993 70.76 231.433 70.82 231.733 70.94L231.613 73.04ZM231.952 75.96C231.952 73.24 233.672 70.76 236.872 70.76C240.112 70.76 241.832 73.12 241.832 75.58C241.832 75.88 241.812 76.3 241.792 76.48H234.092C234.292 78.22 235.412 79.3 237.012 79.3C238.332 79.3 239.272 78.68 239.532 77.58L241.592 78.1C241.052 80.04 239.332 81.16 236.972 81.16C233.772 81.16 231.952 78.68 231.952 75.96ZM234.192 74.82H239.512C239.372 73.46 238.472 72.48 236.872 72.48C235.492 72.48 234.512 73.32 234.192 74.82ZM242.92 75.96C242.92 73.24 244.64 70.76 247.84 70.76C251.08 70.76 252.8 73.12 252.8 75.58C252.8 75.88 252.78 76.3 252.76 76.48H245.06C245.26 78.22 246.38 79.3 247.98 79.3C249.3 79.3 250.24 78.68 250.5 77.58L252.56 78.1C252.02 80.04 250.3 81.16 247.94 81.16C244.74 81.16 242.92 78.68 242.92 75.96ZM245.16 74.82H250.48C250.34 73.46 249.44 72.48 247.84 72.48C246.46 72.48 245.48 73.32 245.16 74.82ZM254.427 81V70.92H256.607V72.6C257.287 71.52 258.447 70.76 259.927 70.76C262.067 70.76 263.567 72.18 263.567 74.36V81H261.387V74.86C261.387 73.6 260.607 72.72 259.327 72.72C257.627 72.72 256.607 74.16 256.607 76.58V81H254.427ZM272.731 81L269.051 70.92H271.271L273.771 78.46L276.271 70.92H278.511L274.831 81H272.731ZM279.594 81V70.92H281.774V81H279.594ZM279.494 69.26V66.84H281.894V69.26H279.494ZM288.24 81.16C285.16 81.16 283.42 79 283.42 75.96C283.42 72.92 285.16 70.76 288.2 70.76C289.5 70.76 290.68 71.34 291.28 72.18V66.84H293.46V81H291.28V79.72C290.8 80.56 289.58 81.16 288.24 81.16ZM285.6 75.96C285.6 77.94 286.76 79.26 288.52 79.26C290.28 79.26 291.44 77.94 291.44 75.96C291.44 73.96 290.28 72.66 288.52 72.66C286.76 72.66 285.6 73.96 285.6 75.96ZM295.09 75.96C295.09 73.24 296.81 70.76 300.01 70.76C303.25 70.76 304.97 73.12 304.97 75.58C304.97 75.88 304.95 76.3 304.93 76.48H297.23C297.43 78.22 298.55 79.3 300.15 79.3C301.47 79.3 302.41 78.68 302.67 77.58L304.73 78.1C304.19 80.04 302.47 81.16 300.11 81.16C296.91 81.16 295.09 78.68 295.09 75.96ZM297.33 74.82H302.65C302.51 73.46 301.61 72.48 300.01 72.48C298.63 72.48 297.65 73.32 297.33 74.82ZM311.257 81.16C308.217 81.16 306.057 78.98 306.057 75.96C306.057 72.94 308.217 70.76 311.257 70.76C314.277 70.76 316.457 72.94 316.457 75.96C316.457 78.98 314.277 81.16 311.257 81.16ZM308.257 75.96C308.257 77.9 309.457 79.26 311.257 79.26C313.037 79.26 314.257 77.9 314.257 75.96C314.257 74.02 313.037 72.66 311.257 72.66C309.457 72.66 308.257 74.02 308.257 75.96ZM321.455 81.16C318.995 81.16 317.595 79.64 317.135 78.2L318.935 77.44C319.275 78.52 320.055 79.42 321.455 79.42C322.495 79.42 323.195 78.82 323.195 78.1C323.195 75.92 317.575 77.34 317.575 73.52C317.575 71.94 318.955 70.76 321.135 70.76C323.035 70.76 324.635 71.76 325.075 73.24L323.275 74C323.015 73 322.075 72.44 321.155 72.44C320.195 72.44 319.595 72.82 319.595 73.48C319.595 75.42 325.255 73.94 325.255 78.08C325.255 79.82 323.735 81.16 321.455 81.16Z" fill="#7C675B"/>
<defs>
<linearGradient id="paint0_linear_2234_125" x1="0" y1="24" x2="367" y2="24" gradientUnits="userSpaceOnUse">
<stop stop-color="#664D3E"/>
<stop offset="0.505" stop-color="#937360"/>
<stop offset="1" stop-color="#664D3E"/>
</linearGradient>
</defs>
</svg>
